<?xml version="1.0"?>
<svg width="512" height="512" xmlns="http://www.w3.org/2000/svg" xmlns:svg="http://www.w3.org/2000/svg" enable-background="new 0 0 841.92 595.2" version="1.1" xml:space="preserve">
 <style type="text/css">.st0{fill:#D9CBE5;stroke:#000000;stroke-width:3;stroke-miterlimit:10;}
	.st1{stroke:#000000;stroke-miterlimit:10;}
	.st2{fill:none;stroke:#000000;stroke-width:11;stroke-miterlimit:10;}
	.st3{fill:none;stroke:#000000;stroke-width:13;stroke-miterlimit:10;}
	.st4{stroke:#000000;stroke-width:3;stroke-miterlimit:10;}
	.st5{fill:none;stroke:#000000;stroke-width:5;stroke-miterlimit:10;}
	.st6{fill:none;stroke:#000000;stroke-width:4;stroke-miterlimit:10;}
	.st7{fill:none;stroke:#000000;stroke-width:3.5;stroke-miterlimit:10;}
	.st8{fill:none;stroke:#000000;stroke-width:3;stroke-miterlimit:10;}
	.st9{fill:none;stroke:#000000;stroke-width:6;stroke-miterlimit:10;}
	.st10{stroke:#000000;stroke-width:6;stroke-miterlimit:10;}
	.st11{fill:none;stroke:#000000;stroke-miterlimit:10;}</style>
 <style class="darkreader darkreader--sync" media="screen"/>

 <g class="layer">
  <title>Layer 1</title>
  <g id="Шар_8">
   <circle class="st0" cx="259.55" cy="242.79" id="svg_1" r="209.25"/>
  </g>
  <g id="Шар_9">
   <g id="svg_2">
    <path d="m370.82,167.72l-9.78,-9.3c-1.16,-1.1 -3,-1.06 -4.1,0.1l-134.13,141.07c-1.1,1.16 -1.06,3 0.1,4.1l9.78,9.3c1.16,1.1 3,1.06 4.1,-0.1l134.14,-141.06c1.1,-1.17 1.05,-3 -0.11,-4.11z" id="svg_3"/>
    <path d="m266.41,329.15l25.17,-26.46c1.25,-1.31 1.02,-3.56 -0.51,-5.02l-45.15,-42.94c-0.47,-0.45 -1.03,-0.79 -1.63,-0.98l-31.76,-10.41c-1.28,-0.42 -2.59,-0.14 -3.41,0.72l-4.78,5.03c-0.81,0.85 -1.03,2.14 -0.57,3.39l11.92,32.36c0.22,0.61 0.6,1.17 1.08,1.63l44.61,42.42c1.53,1.46 3.78,1.58 5.03,0.26z" id="svg_4"/>
   </g>
  </g>
  <g id="Шар_7">
   <path class="st1" d="m190.07,337.65c0.04,-0.6 0.53,-1.07 1.13,-1.07c43.94,0 87.87,0 131.81,0c43.95,0 87.9,0 131.85,0c0.61,0 1.12,0.5 1.13,1.12c0.09,5.09 -0.14,15.86 -0.05,20.99c0.01,0.65 -0.51,1.16 -1.15,1.15c-94.07,-1.57 -142.49,7.64 -155.76,45.13c-9.04,25.55 1.52,40.93 3.39,43.36c0.17,0.22 3.1,3.26 3.32,3.43c15.03,11.51 21.39,16.3 49.21,16.65c0.62,0.01 1.12,0.51 1.12,1.14c-0.01,3.95 -0.07,11.03 -0.08,14.97c0,0.63 -0.49,1.13 -1.11,1.14c-42.92,0.17 -134.15,-0.17 -176.95,-0.01c-0.56,0 -1.03,-0.41 -1.11,-0.97c-0.3,-2.05 -1.01,-6.79 -1.3,-8.76c-0.08,-0.51 0.19,-1.01 0.66,-1.21c5.08,-2.22 29.82,-14.3 34.28,-40.51c2.1,-12.31 -1.15,-22.58 -3.42,-28.05c-0.15,-0.37 -0.5,-0.63 -0.89,-0.68c-16.12,-2.3 -0.02,0.22 -48.34,-8c-44.83,-7.63 -84.51,-40.81 -94.44,-53.1c-0.61,-0.75 -0.07,-1.87 0.88,-1.87c41.83,0 82.59,0 124.45,0c0.6,0 1.09,-0.47 1.13,-1.07l0.24,-3.78z" id="svg_5"/>
  </g>
  <g id="Шар_3">
   <path class="st2" d="m111.73,309.86c-4.54,-8.19 -23.01,-19.71 -41.19,-24.83c-0.05,-0.01 -0.05,-0.09 0.01,-0.09c2.27,0.02 23.37,0.94 23.53,-4.3c0.32,-10.68 -9.19,-15.35 -10.9,-16.36c-8.66,-5.13 -24.36,-10.1 -26.6,-11.14c-0.16,-0.07 -1.54,-1.71 -1.49,-1.55c1.35,4.86 17,48.4 23.2,70.27c9.65,-0.12 19.31,-0.17 28.96,-0.35c7.73,-0.13 8.88,-3.72 4.48,-11.65z" id="svg_6"/>
   <path class="st3" d="m136.98,319.85c1.62,0.69 3.38,1.03 5.13,0.78c1.32,-0.19 2.82,-0.68 4.14,-1.82c3.52,-3.05 3.27,-8.69 3.11,-11.31c-0.46,-7.76 -11.86,-21.58 -18.02,-22.38c-2.18,-0.28 -5.17,-0.67 -7.37,1.04c-7.09,5.5 2.9,26.01 6.35,29.31c2.24,2.14 4.6,3.5 6.66,4.38z" id="svg_7"/>
   <path class="st4" d="m161.29,294.61c-0.74,9.87 -1.48,19.74 -2.22,29.61c-0.05,0.66 0.02,1.76 0.68,1.77c1.59,0.01 3.47,0.24 5.06,0.14c1.09,-0.06 1.38,-1.23 1.31,-1.91c-0.99,-10.22 -0.69,-15.55 0.9,-15.97c1.81,-0.48 5.29,5.35 10.44,17.5c0.19,0.44 0.63,0.73 1.11,0.7l3.91,-0.18c0.84,-0.04 0.78,-0.57 0.4,-1.31c-5.02,-9.79 -9.48,-19.94 -14.5,-29.74c-0.01,-0.02 -0.03,-0.04 -0.06,-0.05l-5.58,-1.58c-0.69,-0.19 -1.4,0.3 -1.45,1.02z" id="svg_8"/>
   <path class="st5" d="m192.01,309.46c-1.63,0.45 -2.53,1.06 -2.7,1.81c-0.42,1.9 3.8,4.75 12.67,8.55c-2.07,1.81 -4.78,4.19 -6.85,6c2.76,0.08 3.22,0.09 5.98,0c0.46,-1.9 2.12,-3.49 3.83,-3.93c2.49,-0.63 5.07,0.73 5.91,3.99c2.61,0 2.83,0.07 5.52,0c-0.65,-2.09 -3.17,-6.91 -8.2,-10.99c-6.62,-5.37 -14.15,-5.46 -16.16,-5.43z" id="svg_9"/>
   <path class="st6" d="m322.94,309.99c-0.55,0.93 -2.12,4.19 -2.96,7.33c-1.08,4.01 -1.58,6.33 -1.36,8.6c10.02,0 20.4,-0.57 30.42,-0.57c0.2,-2.81 0.63,-5.94 1.45,-9.32c1.12,-4.66 4.73,-18.57 6.36,-21.98c-5.91,1.75 -9.97,3.53 -17.84,7.14c-6.1,2.8 -12.82,6.6 -16.07,8.8z" id="svg_10"/>
   <path class="st7" d="m320.54,315.72c3.86,-1.97 8.72,-4.13 14.74,-5.87c7.68,-2.22 13.73,-3.26 17.72,-3.68" id="svg_11"/>
   <path class="st8" d="m319.4,320.74c4.2,-1.43 10.7,-2.89 17.36,-3.85c4.24,-0.61 14,-0.89 13.71,-0.86" id="svg_12"/>
   <path class="st9" d="m371.95,287.65c-1.4,5.51 -1.8,8.37 -2.92,14.64c-1.52,8.5 -1.94,14.25 -2.53,21.63c18.52,-1.18 35.24,-0.75 54.82,-0.98c0.03,-7.82 0.36,-18.1 1.2,-27.06c1.17,-12.49 3.09,-24.87 5.31,-35c-8.84,2.97 -18.58,6.97 -32.24,13.56c-9.46,4.57 -17.02,9.19 -23.64,13.21z" id="svg_13"/>
   <path class="st10" d="m391.68,323.18c-0.26,-8.21 -0.17,-16.98 0.41,-26.25c0.83,-13.21 2.03,-22.77 4.19,-33.81" id="svg_14"/>
   <path class="st9" d="m368.13,307.86c5.58,-3.16 13.41,-6.88 23.34,-9.59c11.89,-3.25 22.35,-3.86 29.66,-3.76" id="svg_15"/>
   <path class="st11" d="m55.1,252.18" id="svg_16"/>
   <ellipse class="st4" cx="586.02" cy="139.43" id="svg_17" rx="1.96" ry="1.52" transform="matrix(0.1266, -0.992, 0.992, 0.1266, 183.779, 826.568)"/>
   <path class="st2" d="m51.29,245.64" id="svg_18"/>
   <g id="svg_19">
    <path class="st6" d="m348.94,289.59c-0.57,0.24 -1.4,0.66 -2.13,1.31c-0.65,0.58 -0.97,1.12 -1.14,1.5" id="svg_20"/>
    <ellipse class="st1" cx="349.15" cy="289.54" id="svg_21" rx="1.84" ry="1.46"/>
    <ellipse class="st1" cx="542.6" cy="170.35" id="svg_22" rx="1.84" ry="1.52" transform="matrix(0.084, -0.9965, 0.9965, 0.084, 130.298, 819.007)"/>
   </g>
  </g>
  <g id="Шар_5"/>
  <g id="Шар_4">
   <polyline class="st6" id="svg_23" points="468.780029296875,239.67999267578125 282.70001220703125,328.05999755859375 451.96002197265625,325.1600036621094 "/>
   <polyline class="st6" id="svg_24" points="51.28999328613281,245.6400146484375 245.83999633789062,328.6600036621094 67.82000732421875,326.75 "/>
  </g>
  <g id="Шар_10">
   <g id="svg_25">
    <path d="m343.47,289.41c0.73,-0.25 -61.17,33.52 -61.17,33.52" id="svg_26"/>
    <path d="m343.47,289.41c-9.6,6.58 -19.77,12.29 -29.93,17.94c-10.12,5.47 -20.69,11.02 -31.24,15.58c19.45,-12.7 40.07,-23.82 61.17,-33.52l0,0z" id="svg_27"/>
   </g>
   <g id="svg_28">
    <path d="m367.61,260.28c0.82,-0.36 -68.92,49.18 -68.92,49.18" id="svg_29"/>
    <path d="m367.61,260.28c-21.9,17.81 -45.05,34.11 -68.92,49.18c22.03,-17.66 45.17,-33.92 68.92,-49.18l0,0z" id="svg_30"/>
   </g>
   <g id="svg_31">
    <path d="m330.53,270.67c0.54,-0.34 -43.92,43.47 -43.92,43.47" id="svg_32"/>
    <path d="m330.53,270.67c-6.25,8.04 -13.69,15.61 -20.87,22.84c-7.31,7.12 -14.99,14.39 -23.05,20.64c6.36,-7.96 13.74,-15.56 20.94,-22.77c7.29,-7.13 15.03,-14.36 22.98,-20.71l0,0z" id="svg_33"/>
   </g>
   <g id="svg_34">
    <path d="m215.21,311.14c0.82,0.62 -89.13,-41.49 -89.13,-41.49" id="svg_35"/>
    <path d="m215.21,311.14c-15.17,-5.53 -30.52,-12.57 -45.23,-19.31c-14.66,-6.92 -29.8,-14.24 -43.9,-22.18c30.42,11.89 60.35,26.09 89.13,41.49l0,0z" id="svg_36"/>
   </g>
   <g id="svg_37">
    <path d="m218.46,305.7c0.57,0.64 -58.36,-48.59 -58.36,-48.59" id="svg_38"/>
    <path d="m218.46,305.7c-10.38,-6.94 -20.5,-15.17 -30.16,-23.1c-9.57,-8.08 -19.41,-16.57 -28.19,-25.48c10.33,7.05 20.45,15.22 30.11,23.18c9.57,8.05 19.38,16.6 28.24,25.4l0,0z" id="svg_39"/>
   </g>
   <g id="svg_40">
    <path d="m234.23,317.84c0.49,0.43 -52.59,-30.11 -52.59,-30.11" id="svg_41"/>
    <path d="m234.23,317.84c-18.12,-8.95 -35.63,-19.12 -52.59,-30.11c18.07,9.08 35.55,19.26 52.59,30.11l0,0z" id="svg_42"/>
   </g>
  </g>
 </g>
</svg>